<svg width="1920" height="1080" viewBox="0 0 1920 1080" fill="none" xmlns="http://www.w3.org/2000/svg">
  <defs>
    <linearGradient id="bg" x1="960" y1="0" x2="960" y2="1080" gradientUnits="userSpaceOnUse">
      <stop stop-color="#08111B"/>
      <stop offset="1" stop-color="#040A12"/>
    </linearGradient>
    <radialGradient id="glowA" cx="0" cy="0" r="1" gradientUnits="userSpaceOnUse" gradientTransform="translate(340 160) rotate(29) scale(560 320)">
      <stop stop-color="#68E1FF" stop-opacity="0.24"/>
      <stop offset="1" stop-color="#68E1FF" stop-opacity="0"/>
    </radialGradient>
    <radialGradient id="glowB" cx="0" cy="0" r="1" gradientUnits="userSpaceOnUse" gradientTransform="translate(1590 140) rotate(180) scale(420 280)">
      <stop stop-color="#7DF3BA" stop-opacity="0.2"/>
      <stop offset="1" stop-color="#7DF3BA" stop-opacity="0"/>
    </radialGradient>
    <linearGradient id="frame" x1="960" y1="40" x2="960" y2="1040" gradientUnits="userSpaceOnUse">
      <stop stop-color="#0D1621" stop-opacity="0.98"/>
      <stop offset="1" stop-color="#07111A" stop-opacity="0.98"/>
    </linearGradient>
    <linearGradient id="panel" x1="0" y1="0" x2="0" y2="1">
      <stop stop-color="#101C29" stop-opacity="0.96"/>
      <stop offset="1" stop-color="#0A131D" stop-opacity="0.96"/>
    </linearGradient>
    <linearGradient id="accentPanel" x1="0" y1="0" x2="1" y2="1">
      <stop stop-color="#68E1FF" stop-opacity="0.16"/>
      <stop offset="1" stop-color="#7DF3BA" stop-opacity="0.06"/>
    </linearGradient>
    <linearGradient id="tealButton" x1="0" y1="0" x2="1" y2="1">
      <stop stop-color="#7DF3BA" stop-opacity="0.34"/>
      <stop offset="1" stop-color="#68E1FF" stop-opacity="0.38"/>
    </linearGradient>
    <filter id="shadow" x="40" y="20" width="1840" height="1040" filterUnits="userSpaceOnUse" color-interpolation-filters="sRGB">
      <feDropShadow dx="0" dy="24" stdDeviation="28" flood-color="#000000" flood-opacity="0.45"/>
    </filter>
    <filter id="soft" x="-20%" y="-20%" width="140%" height="140%" filterUnits="objectBoundingBox" color-interpolation-filters="sRGB">
      <feGaussianBlur stdDeviation="24"/>
    </filter>
  </defs>

  <rect width="1920" height="1080" fill="url(#bg)"/>
  <rect width="1920" height="1080" fill="url(#glowA)"/>
  <rect width="1920" height="1080" fill="url(#glowB)"/>

  <g opacity="0.16">
    <path d="M0 72H1920" stroke="#C8E8FF" stroke-opacity="0.18"/>
    <path d="M0 144H1920" stroke="#C8E8FF" stroke-opacity="0.12"/>
    <path d="M0 216H1920" stroke="#C8E8FF" stroke-opacity="0.08"/>
    <path d="M0 288H1920" stroke="#C8E8FF" stroke-opacity="0.06"/>
    <path d="M0 360H1920" stroke="#C8E8FF" stroke-opacity="0.05"/>
    <path d="M0 432H1920" stroke="#C8E8FF" stroke-opacity="0.04"/>
    <path d="M0 504H1920" stroke="#C8E8FF" stroke-opacity="0.04"/>
    <path d="M0 576H1920" stroke="#C8E8FF" stroke-opacity="0.05"/>
    <path d="M0 648H1920" stroke="#C8E8FF" stroke-opacity="0.06"/>
    <path d="M0 720H1920" stroke="#C8E8FF" stroke-opacity="0.08"/>
    <path d="M0 792H1920" stroke="#C8E8FF" stroke-opacity="0.12"/>
    <path d="M0 864H1920" stroke="#C8E8FF" stroke-opacity="0.18"/>
    <path d="M96 0V1080" stroke="#C8E8FF" stroke-opacity="0.06"/>
    <path d="M192 0V1080" stroke="#C8E8FF" stroke-opacity="0.05"/>
    <path d="M288 0V1080" stroke="#C8E8FF" stroke-opacity="0.05"/>
    <path d="M384 0V1080" stroke="#C8E8FF" stroke-opacity="0.05"/>
    <path d="M480 0V1080" stroke="#C8E8FF" stroke-opacity="0.05"/>
    <path d="M576 0V1080" stroke="#C8E8FF" stroke-opacity="0.05"/>
    <path d="M672 0V1080" stroke="#C8E8FF" stroke-opacity="0.05"/>
    <path d="M768 0V1080" stroke="#C8E8FF" stroke-opacity="0.05"/>
    <path d="M864 0V1080" stroke="#C8E8FF" stroke-opacity="0.05"/>
    <path d="M960 0V1080" stroke="#C8E8FF" stroke-opacity="0.05"/>
    <path d="M1056 0V1080" stroke="#C8E8FF" stroke-opacity="0.05"/>
    <path d="M1152 0V1080" stroke="#C8E8FF" stroke-opacity="0.05"/>
    <path d="M1248 0V1080" stroke="#C8E8FF" stroke-opacity="0.05"/>
    <path d="M1344 0V1080" stroke="#C8E8FF" stroke-opacity="0.05"/>
    <path d="M1440 0V1080" stroke="#C8E8FF" stroke-opacity="0.05"/>
    <path d="M1536 0V1080" stroke="#C8E8FF" stroke-opacity="0.05"/>
    <path d="M1632 0V1080" stroke="#C8E8FF" stroke-opacity="0.05"/>
    <path d="M1728 0V1080" stroke="#C8E8FF" stroke-opacity="0.05"/>
    <path d="M1824 0V1080" stroke="#C8E8FF" stroke-opacity="0.06"/>
  </g>

  <g filter="url(#shadow)">
    <rect x="60" y="40" width="1800" height="1000" rx="30" fill="url(#frame)" stroke="#8AB4D0" stroke-opacity="0.16"/>

    <rect x="60" y="40" width="1800" height="72" rx="30" fill="#08131E"/>
    <path d="M60 112H1860" stroke="#8AB4D0" stroke-opacity="0.16"/>

    <rect x="60" y="112" width="270" height="928" fill="url(#panel)"/>
    <path d="M330 112V1040" stroke="#8AB4D0" stroke-opacity="0.14"/>

    <rect x="1512" y="112" width="348" height="928" fill="url(#panel)"/>
    <path d="M1512 112V1040" stroke="#8AB4D0" stroke-opacity="0.14"/>

    <rect x="330" y="112" width="1182" height="58" fill="#0A1520"/>
    <path d="M330 170H1512" stroke="#8AB4D0" stroke-opacity="0.14"/>

    <rect x="330" y="170" width="1182" height="642" fill="#08131D"/>
    <rect x="330" y="812" width="1182" height="228" fill="#09141E"/>
    <path d="M330 812H1512" stroke="#8AB4D0" stroke-opacity="0.14"/>

    <rect x="82" y="62" width="34" height="34" rx="10" fill="#68E1FF"/>
    <path d="M99 70L113 95H105L99 83L92 95H84L99 70Z" fill="#07111B"/>
    <text x="132" y="79" fill="#EAF6FF" font-size="21" font-family="Segoe UI Variable, Segoe UI, sans-serif" font-weight="700">OpenGravity</text>
    <text x="132" y="96" fill="#7F96AA" font-size="11" font-family="Segoe UI Variable, Segoe UI, sans-serif" letter-spacing="2">AGENT OPERATING SYSTEM</text>

    <rect x="586" y="58" width="470" height="34" rx="17" fill="#0E1A27" stroke="#B1D7F4" stroke-opacity="0.08"/>
    <text x="610" y="79" fill="#9EB0C1" font-size="13" font-family="Segoe UI Variable, Segoe UI, sans-serif">Workspace / game-physics-engine / src / rigid_body_solver.cpp</text>

    <rect x="1188" y="56" width="220" height="36" rx="18" fill="#111D29" stroke="#B1D7F4" stroke-opacity="0.08"/>
    <text x="1203" y="78" fill="#DDEBFA" font-size="12" font-family="Segoe UI Variable, Segoe UI, sans-serif"><tspan font-weight="700">Claude 4 Opus</tspan> hit rate limit</text>

    <rect x="1420" y="56" width="320" height="36" rx="18" fill="#11232C" stroke="#68E1FF" stroke-opacity="0.24"/>
    <text x="1438" y="78" fill="#D8FAFF" font-size="12" font-family="Segoe UI Variable, Segoe UI, sans-serif"><tspan font-weight="700">Gemini 2.5 Pro</tspan> resumed with compacted state</text>

    <rect x="1748" y="56" width="88" height="36" rx="18" fill="#111D29" stroke="#B1D7F4" stroke-opacity="0.08"/>
    <text x="1770" y="78" fill="#DDEBFA" font-size="12" font-family="Segoe UI Variable, Segoe UI, sans-serif"><tspan font-weight="700">5</tspan> agents</text>

    <text x="86" y="146" fill="#8398AD" font-size="11" font-family="Segoe UI Variable, Segoe UI, sans-serif" letter-spacing="2">SESSION</text>
    <rect x="82" y="160" width="226" height="118" rx="20" fill="url(#accentPanel)" stroke="#68E1FF" stroke-opacity="0.18"/>
    <text x="102" y="192" fill="#E7F5FF" font-size="22" font-family="Segoe UI Variable, Segoe UI, sans-serif" font-weight="700">C++ Build Recovery</text>
    <text x="102" y="220" fill="#9AB0C1" font-size="13" font-family="Segoe UI Variable, Segoe UI, sans-serif">
      <tspan x="102" dy="0">OpenGravity detected CMake, resumed from a failed</tspan>
      <tspan x="102" dy="20">MSVC include-path compile, then reassigned the</tspan>
      <tspan x="102" dy="20">Builder agent after provider failover.</tspan>
    </text>

    <text x="86" y="320" fill="#8398AD" font-size="11" font-family="Segoe UI Variable, Segoe UI, sans-serif" letter-spacing="2">WORKSPACE MAP</text>
    <g font-family="Segoe UI Variable, Segoe UI, sans-serif">
      <rect x="82" y="334" width="226" height="46" rx="14" fill="#111C28" stroke="#B1D7F4" stroke-opacity="0.06"/>
      <circle cx="286" cy="357" r="5" fill="#68E1FF"/>
      <text x="100" y="354" fill="#EAF6FF" font-size="13" font-weight="700">CMakeLists.txt</text>
      <text x="100" y="370" fill="#8499AD" font-size="11">root build graph</text>

      <rect x="82" y="390" width="226" height="46" rx="14" fill="#111C28" stroke="#B1D7F4" stroke-opacity="0.06"/>
      <circle cx="286" cy="413" r="5" fill="#7DF3BA"/>
      <text x="100" y="410" fill="#EAF6FF" font-size="13" font-weight="700">src/rigid_body_solver.cpp</text>
      <text x="100" y="426" fill="#8499AD" font-size="11">active editor</text>

      <rect x="82" y="446" width="226" height="46" rx="14" fill="#111C28" stroke="#B1D7F4" stroke-opacity="0.06"/>
      <circle cx="286" cy="469" r="5" fill="#7DF3BA"/>
      <text x="100" y="466" fill="#EAF6FF" font-size="13" font-weight="700">include/physics/solver.hpp</text>
      <text x="100" y="482" fill="#8499AD" font-size="11">dependency surface</text>

      <rect x="82" y="502" width="226" height="46" rx="14" fill="#111C28" stroke="#B1D7F4" stroke-opacity="0.06"/>
      <circle cx="286" cy="525" r="5" fill="#FFD36B"/>
      <text x="100" y="522" fill="#EAF6FF" font-size="13" font-weight="700">tests/solver_regression.cpp</text>
      <text x="100" y="538" fill="#8499AD" font-size="11">verification target</text>

      <rect x="82" y="558" width="226" height="46" rx="14" fill="#111C28" stroke="#B1D7F4" stroke-opacity="0.06"/>
      <circle cx="286" cy="581" r="5" fill="#7DF3BA"/>
      <text x="100" y="578" fill="#EAF6FF" font-size="13" font-weight="700">docs/architecture.md</text>
      <text x="100" y="594" fill="#8499AD" font-size="11">memory context</text>
    </g>

    <text x="86" y="646" fill="#8398AD" font-size="11" font-family="Segoe UI Variable, Segoe UI, sans-serif" letter-spacing="2">BUILD MATRIX</text>
    <g font-family="Segoe UI Variable, Segoe UI, sans-serif">
      <rect x="82" y="660" width="108" height="82" rx="16" fill="#111C28" stroke="#B1D7F4" stroke-opacity="0.06"/>
      <text x="100" y="696" fill="#EAF6FF" font-size="26" font-weight="700">C++20</text>
      <text x="100" y="720" fill="#859BAD" font-size="12">Language profile</text>

      <rect x="200" y="660" width="108" height="82" rx="16" fill="#111C28" stroke="#B1D7F4" stroke-opacity="0.06"/>
      <text x="220" y="696" fill="#EAF6FF" font-size="26" font-weight="700">MSVC</text>
      <text x="220" y="720" fill="#859BAD" font-size="12">Compiler</text>

      <rect x="82" y="752" width="108" height="82" rx="16" fill="#111C28" stroke="#B1D7F4" stroke-opacity="0.06"/>
      <text x="104" y="788" fill="#EAF6FF" font-size="26" font-weight="700">CMake</text>
      <text x="104" y="812" fill="#859BAD" font-size="12">Build system</text>

      <rect x="200" y="752" width="108" height="82" rx="16" fill="#111C28" stroke="#B1D7F4" stroke-opacity="0.06"/>
      <text x="222" y="788" fill="#EAF6FF" font-size="26" font-weight="700">2.4s</text>
      <text x="222" y="812" fill="#859BAD" font-size="12">Last rerun</text>
    </g>

    <g font-family="Segoe UI Variable, Segoe UI, sans-serif">
      <rect x="346" y="126" width="164" height="28" rx="10" fill="#101C28" stroke="#B1D7F4" stroke-opacity="0.06"/>
      <text x="362" y="144" fill="#8EA1B4" font-size="12">session.graph</text>

      <rect x="520" y="126" width="214" height="28" rx="10" fill="#132A36" stroke="#68E1FF" stroke-opacity="0.18"/>
      <text x="536" y="144" fill="#EAF6FF" font-size="12">rigid_body_solver.cpp</text>

      <rect x="744" y="126" width="186" height="28" rx="10" fill="#101C28" stroke="#B1D7F4" stroke-opacity="0.06"/>
      <text x="760" y="144" fill="#8EA1B4" font-size="12">solver_regression.cpp</text>

      <rect x="940" y="126" width="118" height="28" rx="10" fill="#101C28" stroke="#B1D7F4" stroke-opacity="0.06"/>
      <text x="960" y="144" fill="#8EA1B4" font-size="12">build log</text>

      <rect x="1068" y="126" width="146" height="28" rx="10" fill="#101C28" stroke="#B1D7F4" stroke-opacity="0.06"/>
      <text x="1088" y="144" fill="#8EA1B4" font-size="12">continuity pack</text>
    </g>

    <path d="M394 172V812" stroke="#B1D7F4" stroke-opacity="0.06"/>
    <path d="M1284 172V812" stroke="#B1D7F4" stroke-opacity="0.06"/>
    <text x="360" y="214" fill="#5D7389" font-size="12" font-family="Cascadia Code, Consolas, monospace" text-anchor="end">32</text>
    <text x="360" y="242" fill="#5D7389" font-size="12" font-family="Cascadia Code, Consolas, monospace" text-anchor="end">33</text>
    <text x="360" y="270" fill="#5D7389" font-size="12" font-family="Cascadia Code, Consolas, monospace" text-anchor="end">34</text>
    <text x="360" y="298" fill="#5D7389" font-size="12" font-family="Cascadia Code, Consolas, monospace" text-anchor="end">35</text>
    <text x="360" y="326" fill="#5D7389" font-size="12" font-family="Cascadia Code, Consolas, monospace" text-anchor="end">36</text>
    <text x="360" y="354" fill="#5D7389" font-size="12" font-family="Cascadia Code, Consolas, monospace" text-anchor="end">37</text>
    <text x="360" y="382" fill="#5D7389" font-size="12" font-family="Cascadia Code, Consolas, monospace" text-anchor="end">38</text>
    <text x="360" y="410" fill="#5D7389" font-size="12" font-family="Cascadia Code, Consolas, monospace" text-anchor="end">39</text>
    <text x="360" y="438" fill="#5D7389" font-size="12" font-family="Cascadia Code, Consolas, monospace" text-anchor="end">40</text>
    <text x="360" y="466" fill="#5D7389" font-size="12" font-family="Cascadia Code, Consolas, monospace" text-anchor="end">41</text>
    <text x="360" y="494" fill="#5D7389" font-size="12" font-family="Cascadia Code, Consolas, monospace" text-anchor="end">42</text>
    <text x="360" y="522" fill="#5D7389" font-size="12" font-family="Cascadia Code, Consolas, monospace" text-anchor="end">43</text>
    <text x="360" y="550" fill="#5D7389" font-size="12" font-family="Cascadia Code, Consolas, monospace" text-anchor="end">44</text>
    <text x="360" y="578" fill="#5D7389" font-size="12" font-family="Cascadia Code, Consolas, monospace" text-anchor="end">45</text>
    <text x="360" y="606" fill="#5D7389" font-size="12" font-family="Cascadia Code, Consolas, monospace" text-anchor="end">46</text>
    <text x="360" y="634" fill="#5D7389" font-size="12" font-family="Cascadia Code, Consolas, monospace" text-anchor="end">47</text>
    <text x="360" y="662" fill="#5D7389" font-size="12" font-family="Cascadia Code, Consolas, monospace" text-anchor="end">48</text>

    <g font-family="Cascadia Code, Consolas, monospace" font-size="13">
      <text x="420" y="214" fill="#6C8298">// Builder agent patched include resolution after the Claude -&gt; Gemini failover</text>
      <text x="420" y="244" fill="#8ED1FF">#include <tspan fill="#FFB4C3">"physics/solver.hpp"</tspan></text>
      <text x="420" y="272" fill="#8ED1FF">#include <tspan fill="#FFB4C3">"physics/workspace_context.hpp"</tspan></text>
      <text x="420" y="320" fill="#8ED1FF">namespace <tspan fill="#79EFC9">og</tspan> {</text>
      <text x="420" y="364" fill="#79EFC9">SolveResult <tspan fill="#FFE08F">RigidBodySolver::run</tspan>(<tspan fill="#8ED1FF">const</tspan> SolveInput&amp; input) {</text>
      <text x="444" y="392" fill="#DCE7F5">WorkspaceContext context = <tspan fill="#FFE08F">workspace_.restoreCheckpoint</tspan>(<tspan fill="#FFB4C3">"builder:msvc-header-fix"</tspan>);</text>
      <text x="444" y="420" fill="#8ED1FF">if</text>
      <text x="462" y="420" fill="#DCE7F5">(!context.<tspan fill="#FFE08F">hasToolchain</tspan>(<tspan fill="#FFB4C3">"msvc"</tspan>)) {</text>
      <text x="468" y="448" fill="#8ED1FF">return</text>
      <text x="516" y="448" fill="#79EFC9">SolveResult</text>
      <text x="588" y="448" fill="#DCE7F5">::<tspan fill="#FFE08F">blocked</tspan>(<tspan fill="#FFB4C3">"MSVC toolchain unavailable"</tspan>);</text>
      <text x="444" y="500" fill="#79EFC9">BuildPlan</text>
      <text x="512" y="500" fill="#DCE7F5">plan = <tspan fill="#FFE08F">context.activePlan</tspan>();</text>
      <text x="444" y="528" fill="#DCE7F5">plan.includePaths.<tspan fill="#FFE08F">push_back</tspan>(<tspan fill="#FFB4C3">"include"</tspan>);</text>
      <text x="444" y="556" fill="#DCE7F5">plan.flags.<tspan fill="#FFE08F">push_back</tspan>(<tspan fill="#FFB4C3">"/std:c++20"</tspan>);</text>
      <text x="444" y="608" fill="#79EFC9">CompileResult</text>
      <text x="536" y="608" fill="#DCE7F5">build = <tspan fill="#FFE08F">toolchain_.compile</tspan>(plan);</text>
      <text x="444" y="636" fill="#8ED1FF">if</text>
      <text x="462" y="636" fill="#DCE7F5">(!build.success) {</text>
      <text x="468" y="664" fill="#8ED1FF">return</text>
      <text x="516" y="664" fill="#79EFC9">SolveResult</text>
      <text x="588" y="664" fill="#DCE7F5">::<tspan fill="#FFE08F">retryable</tspan>(build.stderr);</text>
      <text x="444" y="716" fill="#8ED1FF">return</text>
      <text x="492" y="716" fill="#79EFC9">SolveResult</text>
      <text x="564" y="716" fill="#DCE7F5">::<tspan fill="#FFE08F">ok</tspan>(build.binaryPath);</text>
      <text x="420" y="756" fill="#DCE7F5">} <tspan fill="#6C8298">// namespace og</tspan></text>
    </g>

    <g opacity="0.92">
      <rect x="1312" y="198" width="148" height="10" rx="5" fill="#68E1FF" fill-opacity="0.28"/>
      <rect x="1312" y="220" width="92" height="10" rx="5" fill="#68E1FF" fill-opacity="0.12"/>
      <rect x="1312" y="242" width="120" height="10" rx="5" fill="#68E1FF" fill-opacity="0.12"/>
      <rect x="1312" y="264" width="156" height="10" rx="5" fill="#68E1FF" fill-opacity="0.28"/>
      <rect x="1312" y="286" width="84" height="10" rx="5" fill="#68E1FF" fill-opacity="0.12"/>
      <rect x="1312" y="308" width="140" height="10" rx="5" fill="#68E1FF" fill-opacity="0.28"/>
      <rect x="1312" y="330" width="106" height="10" rx="5" fill="#68E1FF" fill-opacity="0.12"/>
      <rect x="1312" y="352" width="126" height="10" rx="5" fill="#68E1FF" fill-opacity="0.12"/>
      <rect x="1312" y="374" width="162" height="10" rx="5" fill="#68E1FF" fill-opacity="0.28"/>
      <rect x="1312" y="396" width="96" height="10" rx="5" fill="#68E1FF" fill-opacity="0.12"/>
      <rect x="1312" y="418" width="134" height="10" rx="5" fill="#68E1FF" fill-opacity="0.28"/>
      <rect x="1312" y="440" width="100" height="10" rx="5" fill="#68E1FF" fill-opacity="0.12"/>
      <rect x="1312" y="462" width="152" height="10" rx="5" fill="#68E1FF" fill-opacity="0.28"/>
      <rect x="1312" y="484" width="78" height="10" rx="5" fill="#68E1FF" fill-opacity="0.12"/>
      <rect x="1312" y="506" width="144" height="10" rx="5" fill="#68E1FF" fill-opacity="0.28"/>
      <rect x="1312" y="528" width="104" height="10" rx="5" fill="#68E1FF" fill-opacity="0.12"/>
      <rect x="1312" y="550" width="122" height="10" rx="5" fill="#68E1FF" fill-opacity="0.28"/>
    </g>

    <g font-family="Segoe UI Variable, Segoe UI, sans-serif">
      <rect x="346" y="830" width="676" height="190" rx="18" fill="#0F1A26" stroke="#8AB4D0" stroke-opacity="0.14"/>
      <text x="370" y="860" fill="#EAF6FF" font-size="18" font-weight="700">Build Intelligence Engine</text>
      <rect x="856" y="840" width="144" height="26" rx="13" fill="#111E29" stroke="#B1D7F4" stroke-opacity="0.08"/>
      <text x="878" y="857" fill="#DCE7F5" font-size="11">Compile • Test • Repair</text>
      <text x="370" y="888" fill="#97AFC1" font-size="13">Toolchain-aware execution turns compiler output into targeted repair loops.</text>
      <text x="370" y="906" fill="#97AFC1" font-size="13">The agent treats CMake, compiler, flags, failed headers, retries, and test aftermath as state.</text>
      <rect x="370" y="924" width="628" height="78" rx="14" fill="#091019" stroke="#B1D7F4" stroke-opacity="0.06"/>
      <text x="388" y="948" fill="#D7E6F7" font-family="Cascadia Code, Consolas, monospace" font-size="12">&gt; cmake -S . -B build -G Ninja</text>
      <text x="388" y="968" fill="#7DF3BA" font-family="Cascadia Code, Consolas, monospace" font-size="12">[configure] detected compiler: cl.exe 19.43</text>
      <text x="388" y="988" fill="#FF8CA7" font-family="Cascadia Code, Consolas, monospace" font-size="12">fatal error C1083: cannot open include file: 'physics/solver.hpp'</text>

      <rect x="1038" y="830" width="448" height="190" rx="18" fill="#0F1A26" stroke="#8AB4D0" stroke-opacity="0.14"/>
      <text x="1062" y="860" fill="#EAF6FF" font-size="18" font-weight="700">Continuity Console</text>
      <rect x="1336" y="840" width="128" height="26" rx="13" fill="#11232C" stroke="#68E1FF" stroke-opacity="0.16"/>
      <text x="1365" y="857" fill="#D8FAFF" font-size="11">Claude → Gemini</text>
      <text x="1062" y="888" fill="#97AFC1" font-size="13">The active model can change without losing task state, artifacts, or error history.</text>
      <circle cx="1074" cy="928" r="5" fill="#FFD36B"/>
      <text x="1090" y="932" fill="#EAF6FF" font-size="13" font-weight="700">02:41</text>
      <text x="1144" y="932" fill="#97AFC1" font-size="13">Claude hit rate limit during repair step 3 of 5.</text>
      <circle cx="1074" cy="962" r="5" fill="#68E1FF"/>
      <text x="1090" y="966" fill="#EAF6FF" font-size="13" font-weight="700">02:41</text>
      <text x="1144" y="966" fill="#97AFC1" font-size="13">Context engine emitted a continuity pack with logs and changed files.</text>
      <circle cx="1074" cy="996" r="5" fill="#7DF3BA"/>
      <text x="1090" y="1000" fill="#EAF6FF" font-size="13" font-weight="700">02:42</text>
      <text x="1144" y="1000" fill="#97AFC1" font-size="13">Gemini resumed the same compile recovery loop and finished the fix.</text>
    </g>

    <text x="1536" y="146" fill="#8398AD" font-size="11" font-family="Segoe UI Variable, Segoe UI, sans-serif" letter-spacing="2">AGENT MANAGER</text>
    <g font-family="Segoe UI Variable, Segoe UI, sans-serif">
      <rect x="1534" y="160" width="304" height="52" rx="15" fill="#111C28" stroke="#B1D7F4" stroke-opacity="0.06"/>
      <circle cx="1812" cy="186" r="5" fill="#7DF3BA"/>
      <text x="1552" y="184" fill="#EAF6FF" font-size="13" font-weight="700">Architect</text>
      <text x="1552" y="200" fill="#8499AD" font-size="11">tracking design drift</text>

      <rect x="1534" y="222" width="304" height="52" rx="15" fill="#111C28" stroke="#B1D7F4" stroke-opacity="0.06"/>
      <circle cx="1812" cy="248" r="5" fill="#68E1FF"/>
      <text x="1552" y="246" fill="#EAF6FF" font-size="13" font-weight="700">Builder</text>
      <text x="1552" y="262" fill="#8499AD" font-size="11">rerunning cmake + ctest</text>

      <rect x="1534" y="284" width="304" height="52" rx="15" fill="#111C28" stroke="#B1D7F4" stroke-opacity="0.06"/>
      <circle cx="1812" cy="310" r="5" fill="#7DF3BA"/>
      <text x="1552" y="308" fill="#EAF6FF" font-size="13" font-weight="700">Reviewer</text>
      <text x="1552" y="324" fill="#8499AD" font-size="11">inspecting patch risk</text>

      <rect x="1534" y="346" width="304" height="52" rx="15" fill="#111C28" stroke="#B1D7F4" stroke-opacity="0.06"/>
      <circle cx="1812" cy="372" r="5" fill="#FFD36B"/>
      <text x="1552" y="370" fill="#EAF6FF" font-size="13" font-weight="700">Memory</text>
      <text x="1552" y="386" fill="#8499AD" font-size="11">compacting session state</text>

      <rect x="1534" y="408" width="304" height="52" rx="15" fill="#111C28" stroke="#B1D7F4" stroke-opacity="0.06"/>
      <circle cx="1812" cy="434" r="5" fill="#7DF3BA"/>
      <text x="1552" y="432" fill="#EAF6FF" font-size="13" font-weight="700">Browser</text>
      <text x="1552" y="448" fill="#8499AD" font-size="11">idle, waiting on UI task</text>
    </g>

    <text x="1536" y="500" fill="#8398AD" font-size="11" font-family="Segoe UI Variable, Segoe UI, sans-serif" letter-spacing="2">SESSION METRICS</text>
    <g font-family="Segoe UI Variable, Segoe UI, sans-serif">
      <rect x="1534" y="514" width="304" height="50" rx="15" fill="#111C28" stroke="#B1D7F4" stroke-opacity="0.06"/>
      <text x="1552" y="536" fill="#EAF6FF" font-size="13" font-weight="700">Active task</text>
      <text x="1552" y="552" fill="#8499AD" font-size="11">C++ compile recovery + regression rerun</text>
      <text x="1792" y="544" fill="#EAF6FF" font-size="13" text-anchor="end">3/5</text>

      <rect x="1534" y="574" width="304" height="50" rx="15" fill="#111C28" stroke="#B1D7F4" stroke-opacity="0.06"/>
      <text x="1552" y="596" fill="#EAF6FF" font-size="13" font-weight="700">Compactions</text>
      <text x="1552" y="612" fill="#8499AD" font-size="11">working memory preserved</text>
      <text x="1792" y="604" fill="#EAF6FF" font-size="13" text-anchor="end">2</text>

      <rect x="1534" y="634" width="304" height="50" rx="15" fill="#111C28" stroke="#B1D7F4" stroke-opacity="0.06"/>
      <text x="1552" y="656" fill="#EAF6FF" font-size="13" font-weight="700">Fallback route</text>
      <text x="1552" y="672" fill="#8499AD" font-size="11">Anthropic → Gemini</text>
      <text x="1792" y="664" fill="#EAF6FF" font-size="13" text-anchor="end">hot</text>

      <rect x="1534" y="694" width="304" height="50" rx="15" fill="#111C28" stroke="#B1D7F4" stroke-opacity="0.06"/>
      <text x="1552" y="716" fill="#EAF6FF" font-size="13" font-weight="700">Artifacts</text>
      <text x="1552" y="732" fill="#8499AD" font-size="11">diff, build log, test report</text>
      <text x="1792" y="724" fill="#EAF6FF" font-size="13" text-anchor="end">7</text>
    </g>

    <text x="1536" y="786" fill="#8398AD" font-size="11" font-family="Segoe UI Variable, Segoe UI, sans-serif" letter-spacing="2">CONTINUITY PACK</text>
    <rect x="1534" y="800" width="304" height="108" rx="18" fill="#0F1A26" stroke="#8AB4D0" stroke-opacity="0.14"/>
    <text x="1556" y="828" fill="#EAF6FF" font-size="13" font-family="Segoe UI Variable, Segoe UI, sans-serif" font-weight="700">Preserved state</text>
    <text x="1556" y="854" fill="#97AFC1" font-size="12" font-family="Segoe UI Variable, Segoe UI, sans-serif">
      <tspan x="1556" dy="0">Goal: restore MSVC build, rerun solver_regression,</tspan>
      <tspan x="1556" dy="18">keep the branch clean.</tspan>
      <tspan x="1556" dy="22">Files: CMakeLists.txt, rigid_body_solver.cpp, solver.hpp</tspan>
      <tspan x="1556" dy="22">Best next action: verify patched include path.</tspan>
    </text>

    <text x="1536" y="944" fill="#8398AD" font-size="11" font-family="Segoe UI Variable, Segoe UI, sans-serif" letter-spacing="2">COMMAND SURFACE</text>
    <rect x="1534" y="958" width="304" height="64" rx="18" fill="url(#accentPanel)" stroke="#68E1FF" stroke-opacity="0.18"/>
    <text x="1556" y="984" fill="#DDF6FF" font-size="12" font-family="Segoe UI Variable, Segoe UI, sans-serif">Compile the project, keep the task alive if Claude hits the limit,</text>
    <text x="1556" y="1002" fill="#DDF6FF" font-size="12" font-family="Segoe UI Variable, Segoe UI, sans-serif">and show me every artifact before merge.</text>
    <rect x="1728" y="972" width="92" height="34" rx="14" fill="url(#tealButton)" stroke="#7DF3BA" stroke-opacity="0.24"/>
    <text x="1774" y="994" fill="#FFFFFF" font-size="12" font-family="Segoe UI Variable, Segoe UI, sans-serif" font-weight="700" text-anchor="middle">Dispatch</text>
  </g>
</svg>
